<mxfile host="app.diagrams.net" modified="2022-08-24T14:53:23.067Z" agent="5.0 (Windows NT 10.0; Win64; x64) AppleWebKit/537.36 (KHTML, like Gecko) Chrome/104.0.0.0 Safari/537.36" etag="DL6e2L32HASodInNvRM1" version="20.2.7" type="github">
  <diagram id="C5RBs43oDa-KdzZeNtuy" name="Page-1">
    <mxGraphModel dx="1422" dy="706" grid="1" gridSize="10" guides="1" tooltips="1" connect="1" arrows="1" fold="1" page="1" pageScale="1" pageWidth="827" pageHeight="1169" math="0" shadow="0">
      <root>
        <mxCell id="WIyWlLk6GJQsqaUBKTNV-0" />
        <mxCell id="WIyWlLk6GJQsqaUBKTNV-1" parent="WIyWlLk6GJQsqaUBKTNV-0" />
        <mxCell id="sS4Y9UiQN4ozahU-wbdx-4" value="UGameplayAbility" style="swimlane;fontStyle=1;align=center;verticalAlign=middle;childLayout=stackLayout;horizontal=1;startSize=30;horizontalStack=0;resizeParent=1;resizeParentMax=0;resizeLast=0;collapsible=1;marginBottom=0;" vertex="1" parent="WIyWlLk6GJQsqaUBKTNV-1">
          <mxGeometry x="95" y="540" width="340" height="194" as="geometry" />
        </mxCell>
        <mxCell id="sS4Y9UiQN4ozahU-wbdx-5" value="TSet&lt;FGameplayTag&gt; TrackedGameplayCues" style="text;strokeColor=none;fillColor=none;align=left;verticalAlign=top;spacingLeft=4;spacingRight=4;overflow=hidden;rotatable=0;points=[[0,0.5],[1,0.5]];portConstraint=eastwest;" vertex="1" parent="sS4Y9UiQN4ozahU-wbdx-4">
          <mxGeometry y="30" width="340" height="26" as="geometry" />
        </mxCell>
        <mxCell id="sS4Y9UiQN4ozahU-wbdx-6" value="" style="line;strokeWidth=1;fillColor=none;align=left;verticalAlign=middle;spacingTop=-1;spacingLeft=3;spacingRight=3;rotatable=0;labelPosition=right;points=[];portConstraint=eastwest;" vertex="1" parent="sS4Y9UiQN4ozahU-wbdx-4">
          <mxGeometry y="56" width="340" height="8" as="geometry" />
        </mxCell>
        <mxCell id="sS4Y9UiQN4ozahU-wbdx-7" value="K2_ExecuteGameplayCue" style="text;strokeColor=none;fillColor=none;align=left;verticalAlign=top;spacingLeft=4;spacingRight=4;overflow=hidden;rotatable=0;points=[[0,0.5],[1,0.5]];portConstraint=eastwest;" vertex="1" parent="sS4Y9UiQN4ozahU-wbdx-4">
          <mxGeometry y="64" width="340" height="26" as="geometry" />
        </mxCell>
        <mxCell id="sS4Y9UiQN4ozahU-wbdx-40" value="K2_ExecuteGameplayCueWithParams" style="text;strokeColor=none;fillColor=none;align=left;verticalAlign=top;spacingLeft=4;spacingRight=4;overflow=hidden;rotatable=0;points=[[0,0.5],[1,0.5]];portConstraint=eastwest;" vertex="1" parent="sS4Y9UiQN4ozahU-wbdx-4">
          <mxGeometry y="90" width="340" height="26" as="geometry" />
        </mxCell>
        <mxCell id="sS4Y9UiQN4ozahU-wbdx-41" value="K2_AddGameplayCue" style="text;strokeColor=none;fillColor=none;align=left;verticalAlign=top;spacingLeft=4;spacingRight=4;overflow=hidden;rotatable=0;points=[[0,0.5],[1,0.5]];portConstraint=eastwest;" vertex="1" parent="sS4Y9UiQN4ozahU-wbdx-4">
          <mxGeometry y="116" width="340" height="26" as="geometry" />
        </mxCell>
        <mxCell id="sS4Y9UiQN4ozahU-wbdx-42" value="K2_AddGameplayCueWithParams" style="text;strokeColor=none;fillColor=none;align=left;verticalAlign=top;spacingLeft=4;spacingRight=4;overflow=hidden;rotatable=0;points=[[0,0.5],[1,0.5]];portConstraint=eastwest;" vertex="1" parent="sS4Y9UiQN4ozahU-wbdx-4">
          <mxGeometry y="142" width="340" height="26" as="geometry" />
        </mxCell>
        <mxCell id="sS4Y9UiQN4ozahU-wbdx-43" value="K2_RemoveGameplayCue" style="text;strokeColor=none;fillColor=none;align=left;verticalAlign=top;spacingLeft=4;spacingRight=4;overflow=hidden;rotatable=0;points=[[0,0.5],[1,0.5]];portConstraint=eastwest;" vertex="1" parent="sS4Y9UiQN4ozahU-wbdx-4">
          <mxGeometry y="168" width="340" height="26" as="geometry" />
        </mxCell>
        <mxCell id="sS4Y9UiQN4ozahU-wbdx-9" value="UAbilitySystemComponent" style="swimlane;fontStyle=1;align=center;verticalAlign=top;childLayout=stackLayout;horizontal=1;startSize=26;horizontalStack=0;resizeParent=1;resizeParentMax=0;resizeLast=0;collapsible=1;marginBottom=0;" vertex="1" parent="WIyWlLk6GJQsqaUBKTNV-1">
          <mxGeometry x="140" y="330" width="250" height="128" as="geometry" />
        </mxCell>
        <mxCell id="sS4Y9UiQN4ozahU-wbdx-10" value="+ field: type" style="text;strokeColor=none;fillColor=none;align=left;verticalAlign=top;spacingLeft=4;spacingRight=4;overflow=hidden;rotatable=0;points=[[0,0.5],[1,0.5]];portConstraint=eastwest;" vertex="1" parent="sS4Y9UiQN4ozahU-wbdx-9">
          <mxGeometry y="26" width="250" height="22" as="geometry" />
        </mxCell>
        <mxCell id="sS4Y9UiQN4ozahU-wbdx-11" value="" style="line;strokeWidth=1;fillColor=none;align=left;verticalAlign=middle;spacingTop=-1;spacingLeft=3;spacingRight=3;rotatable=0;labelPosition=right;points=[];portConstraint=eastwest;" vertex="1" parent="sS4Y9UiQN4ozahU-wbdx-9">
          <mxGeometry y="48" width="250" height="8" as="geometry" />
        </mxCell>
        <mxCell id="sS4Y9UiQN4ozahU-wbdx-12" value="ExecuteGameplayCue" style="text;strokeColor=none;fillColor=none;align=left;verticalAlign=top;spacingLeft=4;spacingRight=4;overflow=hidden;rotatable=0;points=[[0,0.5],[1,0.5]];portConstraint=eastwest;" vertex="1" parent="sS4Y9UiQN4ozahU-wbdx-9">
          <mxGeometry y="56" width="250" height="24" as="geometry" />
        </mxCell>
        <mxCell id="sS4Y9UiQN4ozahU-wbdx-38" value="AddGameplayCue" style="text;strokeColor=none;fillColor=none;align=left;verticalAlign=top;spacingLeft=4;spacingRight=4;overflow=hidden;rotatable=0;points=[[0,0.5],[1,0.5]];portConstraint=eastwest;" vertex="1" parent="sS4Y9UiQN4ozahU-wbdx-9">
          <mxGeometry y="80" width="250" height="24" as="geometry" />
        </mxCell>
        <mxCell id="sS4Y9UiQN4ozahU-wbdx-39" value="RemoveGameplayCue" style="text;strokeColor=none;fillColor=none;align=left;verticalAlign=top;spacingLeft=4;spacingRight=4;overflow=hidden;rotatable=0;points=[[0,0.5],[1,0.5]];portConstraint=eastwest;" vertex="1" parent="sS4Y9UiQN4ozahU-wbdx-9">
          <mxGeometry y="104" width="250" height="24" as="geometry" />
        </mxCell>
        <object label="IAbilitySystemReplicationProxyInterface" NetMulticast_InvokeGameplayCueAddedAndWhileActive_FromSpec="" id="sS4Y9UiQN4ozahU-wbdx-18">
          <mxCell style="swimlane;fontStyle=0;childLayout=stackLayout;horizontal=1;startSize=26;fillColor=none;horizontalStack=0;resizeParent=1;resizeParentMax=0;resizeLast=0;collapsible=1;marginBottom=0;" vertex="1" parent="WIyWlLk6GJQsqaUBKTNV-1">
            <mxGeometry x="80" y="40" width="465" height="236" as="geometry">
              <mxRectangle x="540" y="30" width="250" height="30" as="alternateBounds" />
            </mxGeometry>
          </mxCell>
        </object>
        <object label="NetMulticast_InvokeGameplayCueExecuted_FromSpec" placeholders="1" id="sS4Y9UiQN4ozahU-wbdx-26">
          <mxCell style="text;align=center;verticalAlign=middle;resizable=0;points=[];autosize=1;strokeColor=none;fillColor=none;fontSize=12;spacing=2;" vertex="1" parent="sS4Y9UiQN4ozahU-wbdx-18">
            <mxGeometry y="26" width="465" height="30" as="geometry" />
          </mxCell>
        </object>
        <object label="NetMulticast_InvokeGameplayCueAddedAndWhileActive_FromSpec" placeholders="1" id="sS4Y9UiQN4ozahU-wbdx-34">
          <mxCell style="text;align=center;verticalAlign=middle;resizable=0;points=[];autosize=1;strokeColor=none;fillColor=none;fontSize=12;spacing=2;" vertex="1" parent="sS4Y9UiQN4ozahU-wbdx-18">
            <mxGeometry y="56" width="465" height="30" as="geometry" />
          </mxCell>
        </object>
        <object label="NetMulticast_InvokeGameplayCueExecuted" placeholders="1" id="sS4Y9UiQN4ozahU-wbdx-29">
          <mxCell style="text;align=center;verticalAlign=middle;resizable=0;points=[];autosize=1;strokeColor=none;fillColor=none;fontSize=12;" vertex="1" parent="sS4Y9UiQN4ozahU-wbdx-18">
            <mxGeometry y="86" width="465" height="30" as="geometry" />
          </mxCell>
        </object>
        <object label="NetMulticast_InvokeGameplayCueExecuted_WithParams" placeholders="1" id="sS4Y9UiQN4ozahU-wbdx-31">
          <mxCell style="text;align=center;verticalAlign=middle;resizable=0;points=[];autosize=1;strokeColor=none;fillColor=none;fontSize=12;" vertex="1" parent="sS4Y9UiQN4ozahU-wbdx-18">
            <mxGeometry y="116" width="465" height="30" as="geometry" />
          </mxCell>
        </object>
        <object label="NetMulticast_InvokeGameplayCueAdded" placeholders="1" id="sS4Y9UiQN4ozahU-wbdx-32">
          <mxCell style="text;align=center;verticalAlign=middle;resizable=0;points=[];autosize=1;strokeColor=none;fillColor=none;fontSize=12;" vertex="1" parent="sS4Y9UiQN4ozahU-wbdx-18">
            <mxGeometry y="146" width="465" height="30" as="geometry" />
          </mxCell>
        </object>
        <object label="NetMulticast_InvokeGameplayCueAdded_WithParams" placeholders="1" id="sS4Y9UiQN4ozahU-wbdx-33">
          <mxCell style="text;align=center;verticalAlign=middle;resizable=0;points=[];autosize=1;strokeColor=none;fillColor=none;fontSize=12;" vertex="1" parent="sS4Y9UiQN4ozahU-wbdx-18">
            <mxGeometry y="176" width="465" height="30" as="geometry" />
          </mxCell>
        </object>
        <object label="NetMulticast_InvokeGameplayCueAddedAndWhileActive_WithParams" placeholders="1" id="sS4Y9UiQN4ozahU-wbdx-35">
          <mxCell style="text;align=center;verticalAlign=middle;resizable=0;points=[];autosize=1;strokeColor=none;fillColor=none;fontSize=12;" vertex="1" parent="sS4Y9UiQN4ozahU-wbdx-18">
            <mxGeometry y="206" width="465" height="30" as="geometry" />
          </mxCell>
        </object>
        <mxCell id="sS4Y9UiQN4ozahU-wbdx-17" value="" style="endArrow=diamondThin;endFill=1;endSize=24;html=1;rounded=0;exitX=0.5;exitY=0;exitDx=0;exitDy=0;" edge="1" parent="WIyWlLk6GJQsqaUBKTNV-1" source="sS4Y9UiQN4ozahU-wbdx-4" target="sS4Y9UiQN4ozahU-wbdx-9">
          <mxGeometry width="160" relative="1" as="geometry">
            <mxPoint x="-50" y="430" as="sourcePoint" />
            <mxPoint x="-180" y="380" as="targetPoint" />
          </mxGeometry>
        </mxCell>
        <mxCell id="sS4Y9UiQN4ozahU-wbdx-36" value="" style="endArrow=block;dashed=1;endFill=0;endSize=12;html=1;rounded=0;fontSize=8;" edge="1" parent="WIyWlLk6GJQsqaUBKTNV-1" source="sS4Y9UiQN4ozahU-wbdx-9" target="sS4Y9UiQN4ozahU-wbdx-18">
          <mxGeometry width="160" relative="1" as="geometry">
            <mxPoint x="-130" y="300" as="sourcePoint" />
            <mxPoint x="30" y="300" as="targetPoint" />
          </mxGeometry>
        </mxCell>
        <mxCell id="sS4Y9UiQN4ozahU-wbdx-37" style="edgeStyle=none;rounded=0;orthogonalLoop=1;jettySize=auto;html=1;exitX=0.5;exitY=0;exitDx=0;exitDy=0;fontSize=8;startArrow=none;startFill=0;" edge="1" parent="WIyWlLk6GJQsqaUBKTNV-1" source="sS4Y9UiQN4ozahU-wbdx-4" target="sS4Y9UiQN4ozahU-wbdx-4">
          <mxGeometry relative="1" as="geometry" />
        </mxCell>
        <mxCell id="sS4Y9UiQN4ozahU-wbdx-45" value="UGameplayCueManager" style="swimlane;fontStyle=1;align=center;verticalAlign=top;childLayout=stackLayout;horizontal=1;startSize=26;horizontalStack=0;resizeParent=1;resizeParentMax=0;resizeLast=0;collapsible=1;marginBottom=0;" vertex="1" parent="WIyWlLk6GJQsqaUBKTNV-1">
          <mxGeometry x="850" y="40" width="340" height="216" as="geometry" />
        </mxCell>
        <mxCell id="sS4Y9UiQN4ozahU-wbdx-46" value="+ field: type" style="text;strokeColor=none;fillColor=none;align=left;verticalAlign=top;spacingLeft=4;spacingRight=4;overflow=hidden;rotatable=0;points=[[0,0.5],[1,0.5]];portConstraint=eastwest;" vertex="1" parent="sS4Y9UiQN4ozahU-wbdx-45">
          <mxGeometry y="26" width="340" height="26" as="geometry" />
        </mxCell>
        <mxCell id="sS4Y9UiQN4ozahU-wbdx-47" value="" style="line;strokeWidth=1;fillColor=none;align=left;verticalAlign=middle;spacingTop=-1;spacingLeft=3;spacingRight=3;rotatable=0;labelPosition=right;points=[];portConstraint=eastwest;" vertex="1" parent="sS4Y9UiQN4ozahU-wbdx-45">
          <mxGeometry y="52" width="340" height="8" as="geometry" />
        </mxCell>
        <mxCell id="sS4Y9UiQN4ozahU-wbdx-48" value="InvokeGameplayCueExecuted_FromSpec" style="text;strokeColor=none;fillColor=none;align=left;verticalAlign=top;spacingLeft=4;spacingRight=4;overflow=hidden;rotatable=0;points=[[0,0.5],[1,0.5]];portConstraint=eastwest;" vertex="1" parent="sS4Y9UiQN4ozahU-wbdx-45">
          <mxGeometry y="60" width="340" height="26" as="geometry" />
        </mxCell>
        <mxCell id="sS4Y9UiQN4ozahU-wbdx-49" value="InvokeGameplayCueExecuted" style="text;strokeColor=none;fillColor=none;align=left;verticalAlign=top;spacingLeft=4;spacingRight=4;overflow=hidden;rotatable=0;points=[[0,0.5],[1,0.5]];portConstraint=eastwest;" vertex="1" parent="sS4Y9UiQN4ozahU-wbdx-45">
          <mxGeometry y="86" width="340" height="26" as="geometry" />
        </mxCell>
        <mxCell id="sS4Y9UiQN4ozahU-wbdx-50" value="InvokeGameplayCueExecuted_WithParams" style="text;strokeColor=none;fillColor=none;align=left;verticalAlign=top;spacingLeft=4;spacingRight=4;overflow=hidden;rotatable=0;points=[[0,0.5],[1,0.5]];portConstraint=eastwest;" vertex="1" parent="sS4Y9UiQN4ozahU-wbdx-45">
          <mxGeometry y="112" width="340" height="26" as="geometry" />
        </mxCell>
        <mxCell id="sS4Y9UiQN4ozahU-wbdx-51" value="InvokeGameplayCueAddedAndWhileActive_FromSpec" style="text;strokeColor=none;fillColor=none;align=left;verticalAlign=top;spacingLeft=4;spacingRight=4;overflow=hidden;rotatable=0;points=[[0,0.5],[1,0.5]];portConstraint=eastwest;" vertex="1" parent="sS4Y9UiQN4ozahU-wbdx-45">
          <mxGeometry y="138" width="340" height="26" as="geometry" />
        </mxCell>
        <mxCell id="sS4Y9UiQN4ozahU-wbdx-52" value="InvokeGameplayCueExecuted_WithParams" style="text;strokeColor=none;fillColor=none;align=left;verticalAlign=top;spacingLeft=4;spacingRight=4;overflow=hidden;rotatable=0;points=[[0,0.5],[1,0.5]];portConstraint=eastwest;" vertex="1" parent="sS4Y9UiQN4ozahU-wbdx-45">
          <mxGeometry y="164" width="340" height="26" as="geometry" />
        </mxCell>
        <mxCell id="sS4Y9UiQN4ozahU-wbdx-53" value="HandleGameplayCue" style="text;strokeColor=none;fillColor=none;align=left;verticalAlign=top;spacingLeft=4;spacingRight=4;overflow=hidden;rotatable=0;points=[[0,0.5],[1,0.5]];portConstraint=eastwest;" vertex="1" parent="sS4Y9UiQN4ozahU-wbdx-45">
          <mxGeometry y="190" width="340" height="26" as="geometry" />
        </mxCell>
      </root>
    </mxGraphModel>
  </diagram>
</mxfile>
